<?xml version="1.0" standalone="no"?>
<!DOCTYPE svg PUBLIC "-//W3C//DTD SVG 20010904//EN"
 "http://www.w3.org/TR/2001/REC-SVG-20010904/DTD/svg10.dtd">
<svg version="1.0" xmlns="http://www.w3.org/2000/svg"
 width="500.000000pt" height="500.000000pt" viewBox="0 0 500.000000 500.000000"
 preserveAspectRatio="xMidYMid meet">

<g transform="translate(0.000000,500.000000) scale(0.100000,-0.100000)"
fill="#000000" stroke="none">
<path d="M2735 3615 c-266 -59 -504 -231 -634 -458 l-31 -55 -38 11 c-20 6
-84 11 -142 10 -119 0 -207 -25 -307 -85 -119 -72 -234 -229 -265 -365 -12
-51 -13 -52 -70 -73 -86 -31 -201 -113 -259 -183 -99 -122 -149 -259 -149
-409 0 -117 14 -176 66 -285 58 -122 153 -220 269 -280 151 -78 66 -74 1352
-71 l1148 3 70 29 c204 85 348 245 399 442 21 80 21 238 0 317 -33 127 -113
253 -211 330 l-53 43 -4 155 c-6 222 -46 357 -159 524 -137 203 -355 348 -600
400 -85 19 -300 18 -382 0z m398 -115 c319 -81 556 -330 624 -654 15 -75 19
-210 8 -298 l-7 -56 74 -55 c217 -160 285 -431 166 -668 -67 -134 -182 -229
-333 -276 -57 -17 -121 -18 -1165 -18 -1044 0 -1108 1 -1165 18 -93 29 -169
74 -235 140 -286 286 -158 769 232 882 32 9 61 21 64 27 4 6 13 41 20 79 19
102 59 174 139 255 76 76 124 104 225 130 77 20 199 15 272 -11 60 -21 80 -11
114 58 65 128 202 278 322 351 188 114 434 151 645 96z"/>
<path d="M3168 2931 c-11 -114 -77 -187 -284 -316 -206 -129 -262 -191 -301
-338 -19 -71 -23 -292 -6 -342 l10 -30 12 28 c18 46 93 156 158 234 80 96 406
443 412 438 8 -9 -118 -181 -248 -337 -166 -199 -210 -261 -266 -382 -55 -115
-106 -345 -54 -241 11 22 41 62 67 88 46 48 77 65 323 180 158 74 264 189 327
355 36 94 38 269 4 387 -22 75 -103 260 -135 305 -13 19 -15 18 -19 -29z"/>
</g>
</svg>
